<svg id="Calque_1" data-name="Calque 1" xmlns="http://www.w3.org/2000/svg" viewBox="0 0 883.08 191.66"><defs><style>.cls-1{fill:#74faaa;}.cls-2{fill:#fff;}</style></defs><title>titre</title><path class="cls-1" d="M34.73,20.27l4.6-8.44H59.84a11.62,11.62,0,0,1,2.78.27,3.23,3.23,0,0,1,1.57.8,1.72,1.72,0,0,1,.47,1.29,4.22,4.22,0,0,1-.53,1.74l-.09.18a6.54,6.54,0,0,1-1.24,1.7A7.38,7.38,0,0,1,61,19.12a9.89,9.89,0,0,1-2.44.84,14.62,14.62,0,0,1-3,.3H34.73M67.8.82H26.32L0,46.93H20.21l8.2-15.06H51.84a57,57,0,0,0,12.48-1.26,34.77,34.77,0,0,0,9.22-3.39,25.28,25.28,0,0,0,6.37-4.93,23.75,23.75,0,0,0,4-5.88l.47-1A15,15,0,0,0,86,9.65,6.33,6.33,0,0,0,84.46,5a11.5,11.5,0,0,0-5.77-3.08A43.44,43.44,0,0,0,67.8.82"/><path class="cls-1" d="M107.09,19.28l3.48-7.76H132.7a9.83,9.83,0,0,1,2.62.3,3.11,3.11,0,0,1,1.47.81,1.85,1.85,0,0,1,.49,1.21,3.56,3.56,0,0,1-.31,1.49l0,.06a5.5,5.5,0,0,1-.94,1.53,5.9,5.9,0,0,1-1.52,1.24,8,8,0,0,1-2.17.83,12.66,12.66,0,0,1-2.87.3H107.09M141.6.82H96.37L74.49,46.93H94.7l7.37-16.45H121a17.57,17.57,0,0,1,4.72.52,5,5,0,0,1,2.61,1.55,3.74,3.74,0,0,1,.74,2.57,11,11,0,0,1-.92,3.6l-2.32,5.66c-.14.34-.25.64-.34.91a4.62,4.62,0,0,0-.18.69,1.9,1.9,0,0,0,0,.53,1.19,1.19,0,0,0,.14.43h20.63l.13-.33a4.11,4.11,0,0,1-.08-.74,5.89,5.89,0,0,1,.09-1.06,12.65,12.65,0,0,1,.36-1.53c.18-.61.42-1.32.74-2.16L150,34a11,11,0,0,0,.82-4.13,6.33,6.33,0,0,0-.91-3.23,7,7,0,0,0-2.43-2.33,12.64,12.64,0,0,0-3.77-1.43,25.28,25.28,0,0,0,3.64-1A23.71,23.71,0,0,0,151.48,20a17.35,17.35,0,0,0,3.79-3A12.88,12.88,0,0,0,158,12.78l.25-.66a8.57,8.57,0,0,0,.61-4.83,5.76,5.76,0,0,0-2.45-3.54,14.81,14.81,0,0,0-5.67-2.19,46.93,46.93,0,0,0-9.1-.75"/><path class="cls-1" d="M193.42,34.8a30.92,30.92,0,0,1-9.09-1.12,10.37,10.37,0,0,1-4.81-2.83,6.34,6.34,0,0,1-1.6-3.73,9.23,9.23,0,0,1,.55-3.83l.26-.74a13,13,0,0,1,2.06-3.74,14.6,14.6,0,0,1,4-3.46,22.39,22.39,0,0,1,6.5-2.54,42.3,42.3,0,0,1,9.63-1,33.58,33.58,0,0,1,8.87,1,11,11,0,0,1,4.86,2.54,6,6,0,0,1,1.79,3.46,8.56,8.56,0,0,1-.34,3.74l-.26.87a12.59,12.59,0,0,1-2,3.86,15,15,0,0,1-4,3.68,22.4,22.4,0,0,1-6.64,2.76,40.25,40.25,0,0,1-9.81,1.09M206.29,0h-3a81.08,81.08,0,0,0-20,2.22,42.68,42.68,0,0,0-13,5.54A29.86,29.86,0,0,0,162.5,15a29.51,29.51,0,0,0-3.86,7.14l-.7,1.86a22.66,22.66,0,0,0-1.58,7.33,12.53,12.53,0,0,0,2.26,7.78c1.76,2.46,4.7,4.65,9.35,6.23s11,2.55,19.63,2.55h3.21A79.28,79.28,0,0,0,212,45.3a41,41,0,0,0,13.38-6.23,28.16,28.16,0,0,0,7.32-7.78A27.3,27.3,0,0,0,236,24l.51-1.86a20.51,20.51,0,0,0,.78-7.14,12.44,12.44,0,0,0-3-7.22c-1.92-2.21-4.91-4.16-9.42-5.54S214.31,0,206.29,0"/><polygon class="cls-1" points="316.76 0.81 297.89 0.81 292.85 26.34 268.99 0.81 247.71 0.81 235.43 46.93 255.49 46.93 262.37 18.31 288.65 46.93 308.85 46.93 316.76 0.81"/><path class="cls-1" d="M356.17,34.8a33.49,33.49,0,0,1-9.32-1.12,13.58,13.58,0,0,1-5.42-2.83A8.18,8.18,0,0,1,339,27.12a9,9,0,0,1-.27-3.83l.1-.74a10.25,10.25,0,0,1,1.26-3.74,10.66,10.66,0,0,1,3.24-3.46,17.89,17.89,0,0,1,6-2.54,39.54,39.54,0,0,1,9.42-1,36.09,36.09,0,0,1,9.08,1,14.21,14.21,0,0,1,5.4,2.54,7.93,7.93,0,0,1,2.53,3.46,8.64,8.64,0,0,1,.46,3.74l-.07.87A10.16,10.16,0,0,1,375,27.28,10.92,10.92,0,0,1,371.79,31a17.71,17.71,0,0,1-6,2.76,37.41,37.41,0,0,1-9.57,1.09M361.61,0h-3A75.38,75.38,0,0,0,339,2.22a33.64,33.64,0,0,0-11.86,5.54A21.77,21.77,0,0,0,321,15a23.44,23.44,0,0,0-2.34,7.14l-.3,1.86a21.15,21.15,0,0,0,0,7.33,15.45,15.45,0,0,0,3.93,7.78c2.28,2.46,5.69,4.65,10.68,6.23s11.59,2.55,20.17,2.55h3.21A73.24,73.24,0,0,0,377,45.3a31.87,31.87,0,0,0,12.05-6.23,20.66,20.66,0,0,0,5.66-7.78A22.69,22.69,0,0,0,396.39,24l.11-1.86a20.43,20.43,0,0,0-.74-7.14,16,16,0,0,0-4.54-7.22,25.79,25.79,0,0,0-10.6-5.54,69.23,69.23,0,0,0-19-2.22"/><polygon class="cls-1" points="472.25 0.81 453.38 0.81 453.8 26.34 424.48 0.81 403.2 0.81 400.77 46.93 420.84 46.93 421.6 18.31 453.99 46.93 474.2 46.93 472.25 0.81"/><path class="cls-1" d="M515.39,0h-2.6a65.72,65.72,0,0,0-18.42,2.2A25.17,25.17,0,0,0,484,7.71a16.27,16.27,0,0,0-4.5,7.21,21.08,21.08,0,0,0-.8,7.19l.09,1.79a22.36,22.36,0,0,0,1.62,7.39,21.07,21.07,0,0,0,5.59,7.8,31,31,0,0,0,11.68,6.22,67.6,67.6,0,0,0,19.77,2.54h2.78a68.11,68.11,0,0,0,18.94-2.26,26,26,0,0,0,10.39-5.4,14.26,14.26,0,0,0,4.2-6.48,13.05,13.05,0,0,0,.42-5.62l-.15-1H533.67a6,6,0,0,1-.43,1.64,7,7,0,0,1-2,2.59,12.78,12.78,0,0,1-4.82,2.41,32.63,32.63,0,0,1-9,1.06,30.51,30.51,0,0,1-8.74-1.13,15.9,15.9,0,0,1-5.58-2.85,11.18,11.18,0,0,1-3-3.76,10.77,10.77,0,0,1-1.06-3.9l-.06-.74a9.81,9.81,0,0,1,.4-3.82,7.5,7.5,0,0,1,2.3-3.41,12.48,12.48,0,0,1,5-2.44,32.61,32.61,0,0,1,8.43-.93,37.88,37.88,0,0,1,8.83.9,17,17,0,0,1,5.19,2.08,9.36,9.36,0,0,1,2.55,2.32,8,8,0,0,1,.91,1.6H552.8l-.12-.79a14.47,14.47,0,0,0-2-5.31A19.41,19.41,0,0,0,545,6.72,34.29,34.29,0,0,0,533.79,2a76,76,0,0,0-18.4-2"/><polygon class="cls-1" points="574.28 0.81 555.35 0.81 562.56 46.93 582.7 46.93 574.28 0.81"/><path class="cls-1" d="M612,27.28l4.74-15.7,12.39,15.7ZM627.27.82H601.72l-16,46.12h20.49l2.35-7.83h29.93l6.14,7.83h22.13L627.27.82"/><polygon class="cls-1" points="706.23 0.81 644.27 0.81 647.62 12.84 669.45 12.84 679.96 46.93 700.16 46.93 688.77 12.84 710.6 12.84 706.23 0.81"/><path class="cls-1" d="M760.47,34.8a40.45,40.45,0,0,1-9.92-1.12,24.78,24.78,0,0,1-6.92-2.83,17.6,17.6,0,0,1-4.37-3.73,14.12,14.12,0,0,1-2.3-3.83l-.29-.74a9.27,9.27,0,0,1-.73-3.74,5.33,5.33,0,0,1,1.41-3.46A9.63,9.63,0,0,1,742,12.81a33.14,33.14,0,0,1,8.89-1,42.82,42.82,0,0,1,9.61,1,25.05,25.05,0,0,1,6.75,2.54,17.21,17.21,0,0,1,4.37,3.46A14.24,14.24,0,0,1,774,22.55l.38.87a9.75,9.75,0,0,1,.92,3.86A5.62,5.62,0,0,1,774,31a9.27,9.27,0,0,1-4.58,2.76,30.93,30.93,0,0,1-9,1.09M747.43,0h-3c-8.05,0-14,.83-18.4,2.22s-7.21,3.33-8.92,5.54A11.37,11.37,0,0,0,714.79,15a21.5,21.5,0,0,0,1.45,7.14l.68,1.86a30.34,30.34,0,0,0,3.88,7.33,32.29,32.29,0,0,0,8.05,7.78,45.64,45.64,0,0,0,14,6.23,82.29,82.29,0,0,0,21.53,2.55h3.2c8.57,0,14.84-1,19.35-2.55s7.22-3.77,8.75-6.23a11.8,11.8,0,0,0,1.53-7.78A24.28,24.28,0,0,0,794.94,24l-.87-1.86A33.17,33.17,0,0,0,789.53,15a34.38,34.38,0,0,0-8.37-7.22,47.12,47.12,0,0,0-13.54-5.54A83.19,83.19,0,0,0,747.43,0"/><path class="cls-1" d="M817.77,19.28l-3.91-7.76H836a13.41,13.41,0,0,1,2.9.3,8.85,8.85,0,0,1,2.24.81,6.88,6.88,0,0,1,1.64,1.21,6.49,6.49,0,0,1,1.11,1.49l0,.06a4,4,0,0,1,.52,1.53,1.71,1.71,0,0,1-.34,1.24,2.66,2.66,0,0,1-1.38.83,9.15,9.15,0,0,1-2.58.3H817.77M834.69.82H789.46l22.05,46.12h20.21l-8.29-16.45h18.94a23.79,23.79,0,0,1,5.21.52,14.57,14.57,0,0,1,4.09,1.55,13.05,13.05,0,0,1,3.19,2.57,18.16,18.16,0,0,1,2.5,3.6l3.07,5.66c.19.34.36.64.52.91a7.75,7.75,0,0,0,.48.69,4.71,4.71,0,0,0,.49.53,4.34,4.34,0,0,0,.54.43h20.63l-.19-.33c-.25-.21-.51-.45-.79-.74a13.48,13.48,0,0,1-.92-1.06c-.33-.42-.7-.92-1.1-1.53s-.84-1.32-1.32-2.16l-4-7.08a20.33,20.33,0,0,0-3.12-4.13,22.29,22.29,0,0,0-4-3.23A25.65,25.65,0,0,0,863,24.34a29,29,0,0,0-5.12-1.43,11.11,11.11,0,0,0,2.68-1A6.8,6.8,0,0,0,862.84,20a4.86,4.86,0,0,0,.94-3,8.86,8.86,0,0,0-1.34-4.22l-.38-.66a18.15,18.15,0,0,0-4-4.83,22.15,22.15,0,0,0-5.82-3.54,34.55,34.55,0,0,0-7.75-2.19,59.11,59.11,0,0,0-9.81-.75"/><path class="cls-2" d="M146.85,53.62h-7.62c-18.85,0-34.18,1.6-46.72,4.24S70,64.21,62.23,68.38A67.14,67.14,0,0,0,44.4,81.9a54.38,54.38,0,0,0-8.87,12.87l-.91,1.85H100a9.39,9.39,0,0,1,1.65-2.56,16.91,16.91,0,0,1,4.72-3.64,34.16,34.16,0,0,1,9.32-3.23,75.61,75.61,0,0,1,15.49-1.39c6.12,0,10.74.19,14.19.55a26.19,26.19,0,0,1,7.26,1.51c1.5.64,2.19,1.41,2.42,2.26a4.89,4.89,0,0,1-.36,2.81l-.06.17a6,6,0,0,1-1.36,2.18,8.25,8.25,0,0,1-2.46,1.7,14.76,14.76,0,0,1-3.64,1.11,27.64,27.64,0,0,1-4.89.39H103.84L90.28,131.63h39.78a28.64,28.64,0,0,1,5.39.42,8.43,8.43,0,0,1,3.37,1.3,3.5,3.5,0,0,1,1.45,2.24,6.44,6.44,0,0,1-.41,3.25l-.13.37a8.7,8.7,0,0,1-2.35,3.6,15,15,0,0,1-5.33,3,45.14,45.14,0,0,1-9.69,2.06,131.78,131.78,0,0,1-15.4.76c-7,0-12-.77-15.6-2s-5.68-2.82-6.87-4.53a7.8,7.8,0,0,1-1.4-5,10.73,10.73,0,0,1,.82-3.48h-69l-.82,1.66A50.79,50.79,0,0,0,8.79,152,26.56,26.56,0,0,0,13,170.33c4,5.9,11.15,11.2,22.82,15.05s28.09,6.27,50.28,6.27h9.74c22.67,0,41.22-2,56.33-5.3s26.53-7.89,35.37-13.16a62.14,62.14,0,0,0,19.05-17,51.06,51.06,0,0,0,8-17l.29-1.12a31.13,31.13,0,0,0,.83-14,19.48,19.48,0,0,0-4.87-9.61,25.67,25.67,0,0,0-8.85-6,44.64,44.64,0,0,0-11.25-3,66,66,0,0,0,11.17-2.61,48.3,48.3,0,0,0,9.79-4.42,30.39,30.39,0,0,0,7.45-6.16,20,20,0,0,0,4.21-7.81l.18-.66c1-3.54,1.54-7.23.62-10.76s-3.28-6.84-8.25-9.74-12.41-5.31-23.56-7-25.88-2.7-45.51-2.7"/><path class="cls-2" d="M325,144.09a46.7,46.7,0,0,1-16.54-2.6,23.08,23.08,0,0,1-9.68-6.55,19.28,19.28,0,0,1-4.16-8.63,24,24,0,0,1-.08-8.92l.37-2.12a26.89,26.89,0,0,1,3-8.56,26.42,26.42,0,0,1,6.67-7.79,33.13,33.13,0,0,1,11.08-5.64,56.29,56.29,0,0,1,16.39-2.17,49.81,49.81,0,0,1,15.66,2.17,24,24,0,0,1,9.59,5.64A18.45,18.45,0,0,1,362,106.7a22.33,22.33,0,0,1,.8,8.56l-.2,2.12a27,27,0,0,1-8.87,17.56,32.69,32.69,0,0,1-11.42,6.55,53.16,53.16,0,0,1-17.31,2.6m16-90.48h-7.62c-19.95,0-36,2.15-49.05,5.74S261,68.11,253.06,74a68.48,68.48,0,0,0-17.94,19.79,76.88,76.88,0,0,0-8.43,20.56l-1.36,5.31a67.81,67.81,0,0,0-2.21,21.82,43.66,43.66,0,0,0,8.56,23.32c5.62,7.47,14.44,14.14,27.73,19s31.33,7.85,54.81,7.85h9c23.43,0,42.08-3,56.8-7.85,14.56-4.83,25.14-11.5,32.75-19a59.54,59.54,0,0,0,14.79-23.32,69.51,69.51,0,0,0,3.63-21.82l.07-5.31a63,63,0,0,0-2.92-20.56A46.9,46.9,0,0,0,415.67,74c-6.32-5.92-15.11-11-27.27-14.67S360.88,53.62,341,53.62"/><path class="cls-2" d="M544,144.09a52.44,52.44,0,0,1-17.2-2.6,32.24,32.24,0,0,1-11.33-6.55,26.69,26.69,0,0,1-6.33-8.63,26.34,26.34,0,0,1-2.32-8.92l-.16-2.12a22.92,22.92,0,0,1,.89-8.56,18.61,18.61,0,0,1,4.71-7.79,24.21,24.21,0,0,1,9.67-5.64,50.82,50.82,0,0,1,15.84-2.17,55.22,55.22,0,0,1,16.21,2.17,32.92,32.92,0,0,1,11,5.64,26,26,0,0,1,9.57,16.35l.34,2.12a24.26,24.26,0,0,1-.2,8.92,19.52,19.52,0,0,1-4.26,8.63,23.44,23.44,0,0,1-9.78,6.55,47.37,47.37,0,0,1-16.66,2.6m-6.75-90.48h-7.62c-19.95,0-35.47,2.15-47.61,5.74S460.85,68.11,454.42,74a47.9,47.9,0,0,0-13,19.79,63.42,63.42,0,0,0-3.26,20.56l0,5.31a68.93,68.93,0,0,0,3.27,21.82,58.23,58.23,0,0,0,14.43,23.32c7.5,7.47,18,14.14,32.5,19,14.66,4.88,33.3,7.85,56.78,7.85h9c23.43,0,41.34-3,54.82-7.85s22.25-11.5,28-19a44.39,44.39,0,0,0,8.92-23.32A67.61,67.61,0,0,0,644,119.69l-1.27-5.31a75.66,75.66,0,0,0-8.09-20.56A66.88,66.88,0,0,0,617,74c-7.81-5.92-17.89-11-31-14.67s-29-5.74-48.87-5.74"/><path class="cls-2" d="M762.94,144.09a58.6,58.6,0,0,1-17.85-2.6,44.07,44.07,0,0,1-13-6.55,38.54,38.54,0,0,1-8.5-8.63,33.77,33.77,0,0,1-4.57-8.92l-.7-2.12a23.32,23.32,0,0,1-1.27-8.56,14,14,0,0,1,2.76-7.79,17.33,17.33,0,0,1,8.25-5.64c3.83-1.37,8.83-2.17,15.29-2.17a61,61,0,0,1,16.75,2.17,44.14,44.14,0,0,1,12.43,5.64,38,38,0,0,1,8.58,7.79,34.57,34.57,0,0,1,5.1,8.56l.87,2.12a26.13,26.13,0,0,1,2,8.92,15.45,15.45,0,0,1-2.09,8.63,16.5,16.5,0,0,1-8.13,6.55c-3.93,1.63-9.17,2.6-16,2.6m-29.5-90.48h-7.62c-19.95,0-34.94,2.15-46.17,5.74S660.73,68.11,655.79,74a35.49,35.49,0,0,0-8,19.79,62,62,0,0,0,1.91,20.56l1.31,5.31a81.84,81.84,0,0,0,29.05,45.14c9.38,7.47,21.55,14.14,37.27,19,15.89,4.88,35.28,7.85,58.76,7.85h9c23.43,0,40.59-3,52.85-7.85s19.36-11.5,23.21-19,4.3-15.44,3.05-23.32a78.5,78.5,0,0,0-7.35-21.82l-2.61-5.31A102.49,102.49,0,0,0,841,93.82,97.08,97.08,0,0,0,818.4,74a119.94,119.94,0,0,0-34.65-14.67c-13.86-3.59-30.4-5.74-50.31-5.74"/></svg>